<mxfile host="app.diagrams.net" agent="Mozilla/5.0 (Windows NT 10.0; Win64; x64) AppleWebKit/537.36 (KHTML, like Gecko) Chrome/128.0.0.0 Safari/537.36" version="26.2.9">
  <diagram name="1 oldal" id="D_3So06l7AVIUcyZyOML">
    <mxGraphModel dx="1433" dy="896" grid="1" gridSize="10" guides="1" tooltips="1" connect="1" arrows="1" fold="1" page="1" pageScale="1" pageWidth="827" pageHeight="1169" math="0" shadow="0">
      <root>
        <mxCell id="0" />
        <mxCell id="1" parent="0" />
        <mxCell id="cRCqdnQ3Ehfl_2wYucaK-2" value="" style="group" parent="1" vertex="1" connectable="0">
          <mxGeometry x="213" y="250" width="360" height="740" as="geometry" />
        </mxCell>
        <mxCell id="cRCqdnQ3Ehfl_2wYucaK-3" value="" style="rounded=0;whiteSpace=wrap;html=1;" parent="cRCqdnQ3Ehfl_2wYucaK-2" vertex="1">
          <mxGeometry width="360" height="630" as="geometry" />
        </mxCell>
        <mxCell id="cRCqdnQ3Ehfl_2wYucaK-4" value="Szakterületek kezelése" style="text;html=1;align=center;verticalAlign=middle;whiteSpace=wrap;rounded=0;fontSize=18;" parent="cRCqdnQ3Ehfl_2wYucaK-2" vertex="1">
          <mxGeometry x="83.75" y="10" width="192.5" height="30" as="geometry" />
        </mxCell>
        <mxCell id="cRCqdnQ3Ehfl_2wYucaK-5" value="UC_SZA_List&amp;nbsp;&lt;br&gt;Szakterületek listázása" style="ellipse;whiteSpace=wrap;html=1;fillColor=#fff2cc;strokeColor=#d6b656;" parent="cRCqdnQ3Ehfl_2wYucaK-2" vertex="1">
          <mxGeometry x="92.5" y="80" width="170" height="100" as="geometry" />
        </mxCell>
        <mxCell id="cRCqdnQ3Ehfl_2wYucaK-6" value="UC_SZA_Create&lt;br&gt;Szakterület létrehozása" style="ellipse;whiteSpace=wrap;html=1;fillColor=#fff2cc;strokeColor=#d6b656;" parent="cRCqdnQ3Ehfl_2wYucaK-2" vertex="1">
          <mxGeometry x="95" y="335" width="170" height="100" as="geometry" />
        </mxCell>
        <mxCell id="cRCqdnQ3Ehfl_2wYucaK-7" value="UC_SZA_Read&lt;br&gt;Szakterület megtekintése" style="ellipse;whiteSpace=wrap;html=1;fillColor=#fff2cc;strokeColor=#d6b656;" parent="cRCqdnQ3Ehfl_2wYucaK-2" vertex="1">
          <mxGeometry x="95" y="220" width="170" height="100" as="geometry" />
        </mxCell>
        <mxCell id="cRCqdnQ3Ehfl_2wYucaK-8" value="UC_SZA_Update&lt;br&gt;Szakterület módosítása" style="ellipse;whiteSpace=wrap;html=1;fillColor=#fff2cc;strokeColor=#d6b656;" parent="cRCqdnQ3Ehfl_2wYucaK-2" vertex="1">
          <mxGeometry x="92.5" y="470" width="170" height="100" as="geometry" />
        </mxCell>
        <mxCell id="cRCqdnQ3Ehfl_2wYucaK-10" value="&lt;font style=&quot;font-size: 18px;&quot;&gt;Látogató&lt;/font&gt;" style="shape=umlActor;verticalLabelPosition=bottom;verticalAlign=top;html=1;outlineConnect=0;fillColor=#d5e8d4;strokeColor=#82b366;" parent="1" vertex="1">
          <mxGeometry x="63" y="520" width="100" height="200" as="geometry" />
        </mxCell>
        <mxCell id="cRCqdnQ3Ehfl_2wYucaK-11" value="&lt;font style=&quot;font-size: 18px;&quot;&gt;Adminisztrátor&lt;/font&gt;" style="shape=umlActor;verticalLabelPosition=bottom;verticalAlign=top;html=1;outlineConnect=0;fillColor=#f8cecc;strokeColor=#b85450;" parent="1" vertex="1">
          <mxGeometry x="663" y="520" width="100" height="200" as="geometry" />
        </mxCell>
        <mxCell id="cRCqdnQ3Ehfl_2wYucaK-14" value="" style="endArrow=none;html=1;rounded=0;entryX=0;entryY=0.3333333333333333;entryDx=0;entryDy=0;entryPerimeter=0;exitX=1;exitY=0.5;exitDx=0;exitDy=0;" parent="1" source="cRCqdnQ3Ehfl_2wYucaK-7" target="cRCqdnQ3Ehfl_2wYucaK-11" edge="1">
          <mxGeometry width="50" height="50" relative="1" as="geometry">
            <mxPoint x="533" y="450" as="sourcePoint" />
            <mxPoint x="663" y="550" as="targetPoint" />
          </mxGeometry>
        </mxCell>
        <mxCell id="cRCqdnQ3Ehfl_2wYucaK-15" value="" style="endArrow=none;html=1;rounded=0;entryX=0;entryY=0.3333333333333333;entryDx=0;entryDy=0;entryPerimeter=0;exitX=1;exitY=0.5;exitDx=0;exitDy=0;" parent="1" source="cRCqdnQ3Ehfl_2wYucaK-5" target="cRCqdnQ3Ehfl_2wYucaK-11" edge="1">
          <mxGeometry width="50" height="50" relative="1" as="geometry">
            <mxPoint x="533" y="400" as="sourcePoint" />
            <mxPoint x="663" y="590" as="targetPoint" />
          </mxGeometry>
        </mxCell>
        <mxCell id="cRCqdnQ3Ehfl_2wYucaK-16" value="" style="endArrow=none;html=1;rounded=0;entryX=0;entryY=0.3333333333333333;entryDx=0;entryDy=0;entryPerimeter=0;exitX=1;exitY=0.5;exitDx=0;exitDy=0;" parent="1" source="cRCqdnQ3Ehfl_2wYucaK-6" target="cRCqdnQ3Ehfl_2wYucaK-11" edge="1">
          <mxGeometry width="50" height="50" relative="1" as="geometry">
            <mxPoint x="523" y="510" as="sourcePoint" />
            <mxPoint x="653" y="620" as="targetPoint" />
          </mxGeometry>
        </mxCell>
        <mxCell id="cRCqdnQ3Ehfl_2wYucaK-17" value="" style="endArrow=none;html=1;rounded=0;entryX=0;entryY=0.3333333333333333;entryDx=0;entryDy=0;entryPerimeter=0;exitX=1;exitY=0.5;exitDx=0;exitDy=0;" parent="1" source="cRCqdnQ3Ehfl_2wYucaK-8" target="cRCqdnQ3Ehfl_2wYucaK-11" edge="1">
          <mxGeometry width="50" height="50" relative="1" as="geometry">
            <mxPoint x="523" y="560" as="sourcePoint" />
            <mxPoint x="653" y="660" as="targetPoint" />
          </mxGeometry>
        </mxCell>
      </root>
    </mxGraphModel>
  </diagram>
</mxfile>
